<svg width="30" height="30" viewBox="0 0 30 30" fill="none" xmlns="http://www.w3.org/2000/svg">
<path d="M15 22.5C13.0109 22.5 11.1033 21.7099 9.69675 20.3034C8.29023 18.8968 7.50005 16.9892 7.50005 15C7.50005 13.0109 8.29023 11.1033 9.69675 9.69675C11.1033 8.29023 13.0109 7.50005 15 7.50005C16.9892 7.50005 18.8968 8.29023 20.3034 9.69675C21.7099 11.1033 22.5 13.0109 22.5 15C22.5 16.9892 21.7099 18.8968 20.3034 20.3034C18.8968 21.7099 16.9892 22.5 15 22.5ZM25 19.1376L29.1375 15L25 10.8625V5.00005H19.1376L15 0.862549L10.8625 5.00005H5.00005V10.8625L0.862549 15L5.00005 19.1376V25H10.8625L15 29.1375L19.1376 25H25V19.1376Z" fill="#2C6632"/>
</svg>
